<?xml version="1.0" encoding="UTF-8"?>
<svg width="80px" height="80px" viewBox="0 0 80 80" version="1.1" xmlns="http://www.w3.org/2000/svg" xmlns:xlink="http://www.w3.org/1999/xlink">
    <title>close</title>
    <g id="close" stroke="none" stroke-width="1" fill="none" fill-rule="evenodd">
        <g transform="translate(8.000000, 8.000000)" fill="#2D414C" fill-rule="nonzero" id="Path">
            <path d="M37.8633575,32.0004745 L62.7836712,7.07888434 C64.4054429,5.45783822 64.4054429,2.83683071 62.7836712,1.21578459 C61.1626588,-0.40526153 58.5417057,-0.40526153 56.9206932,1.21578459 L31.9996203,26.1373749 L7.07930679,1.21578459 C5.45753511,-0.40526153 2.83734122,-0.40526153 1.21632876,1.21578459 C-0.405442918,2.83683071 -0.405442918,5.45783822 1.21632876,7.07888434 L26.1366425,32.0004745 L1.21632876,56.9220648 C-0.405442918,58.5431109 -0.405442918,61.1641184 1.21632876,62.7851645 C2.02417757,63.5937893 3.08637732,64 4.14781787,64 C5.20925822,64 6.27069877,63.5937893 7.07930679,62.7851645 L31.9996203,37.8635742 L56.9206932,62.7851645 C57.7293012,63.5937893 58.7907418,64 59.8521823,64 C60.9136227,64 61.975063,63.5937893 62.7836712,62.7851645 C64.4054429,61.1641184 64.4054429,58.5431109 62.7836712,56.9220648 L37.8633575,32.0004745 Z"></path>
        </g>
    </g>
</svg>