<?xml version="1.0" encoding="UTF-8"?>
<svg width="80px" height="80px" viewBox="0 0 80 80" version="1.1" xmlns="http://www.w3.org/2000/svg" xmlns:xlink="http://www.w3.org/1999/xlink">
    <title>dribbble</title>
    <g id="dribbble" stroke="none" stroke-width="1" fill="none" fill-rule="evenodd">
        <rect id="Rectangle" fill="#2D414C" x="0" y="0" width="80" height="80" rx="16"></rect>
        <path d="M40,12 C24.5606328,12 12,24.5607673 12,40 C12,55.4392327 24.5606328,68 40,68 C55.4393672,68 68,55.4392327 68,40 C68,24.5607673 55.4393672,12 40,12 Z M58.2464704,25.2054548 C61.3898505,29.074779 63.3250913,33.9586393 63.4860366,39.2824816 C57.6632307,38.0770268 52.3906961,38.2184924 47.7361678,39.1311254 C46.8933774,37.1601978 46.0209156,35.2824816 45.1403616,33.5078675 C50.2093917,31.3241421 54.6223521,28.5349918 58.2464704,25.2054548 Z M55.0923006,21.9997003 C51.4948567,25.2833808 47.3258619,27.7146711 43.057063,29.5096658 C39.9238731,23.780009 36.9261531,19.465308 35.1000075,17.0133373 C36.6812883,16.6764574 38.3198142,16.4957291 40,16.4957291 C45.741584,16.4957291 51.0060264,18.5679604 55.0923006,21.9997003 Z M30.5593697,18.4816424 C31.9383449,20.2685449 35.2228894,24.7426944 38.7510998,31.1083471 C29.8838188,33.9973026 21.2796849,34.4840402 17.145157,34.5292972 C18.8685013,27.3301364 23.9099579,21.4104601 30.5593697,18.4816424 Z M16.5202573,39.0364154 C16.5646147,39.0364154 16.6074735,39.0367151 16.6527301,39.0367151 C19.5095854,39.0367151 24.7437569,38.8445976 30.9058369,37.7209651 C34.4214594,37.0798741 37.7551567,36.2169939 40.8832514,35.1476098 C41.6975691,36.770568 42.5070914,38.4825416 43.2920373,40.2769369 C38.9120452,41.6870973 35.2183938,43.7161696 32.2926046,45.7308557 C27.3863181,49.1095459 23.9492202,52.8580848 22.0724233,55.175783 C18.5975616,51.0777761 16.4956809,45.7812079 16.4956809,40 C16.4956809,39.6769069 16.50707,39.3565113 16.5202573,39.0364154 Z M25.312011,58.3302862 C26.9277587,56.295819 30.2164991,52.5928368 34.9738287,49.3436236 C38.2068227,47.1353214 41.5516093,45.4946801 44.9950012,44.4178031 C46.9928818,49.5962835 48.6985432,55.3181478 49.7154662,61.393676 C46.7519133,62.7447924 43.464072,63.5042709 40,63.5042709 C34.4457361,63.5042709 29.3389422,61.5636146 25.312011,58.3302862 Z M53.8514927,58.9728758 C52.8033996,53.3930766 51.2404012,48.1465608 49.4334372,43.3517159 C53.878167,42.6018283 58.4718538,42.7564813 63.1899211,43.8162745 C62.1723987,50.0173835 58.7218137,55.4074629 53.8514927,58.9728758 Z" id="Shape" fill="#FFFFFF" fill-rule="nonzero"></path>
    </g>
</svg>