<?xml version="1.0" encoding="UTF-8"?>
<svg width="80px" height="80px" viewBox="0 0 80 80" version="1.1" xmlns="http://www.w3.org/2000/svg" xmlns:xlink="http://www.w3.org/1999/xlink">
    <title>github</title>
    <g id="github" stroke="none" stroke-width="1" fill="none" fill-rule="evenodd">
        <g id="github-sign" transform="translate(0.000365, 0.000000)" fill="#2D414C" fill-rule="nonzero">
            <path d="M75.5986382,4.4006321 C72.6645186,1.46705979 69.1324107,0 64.9995781,0 L14.9998746,0 C10.868319,0 7.33493411,1.46705979 4.4006321,4.4006321 C1.46705979,7.33475169 0,10.8681366 0,14.9998746 L0,65.0003078 C0,69.1322283 1.46705979,72.6652483 4.4006321,75.5988206 C7.33475169,78.5329402 10.868319,80 14.9998746,80 L26.6664842,80 C27.4297494,80 28.0031103,79.9737308 28.3849253,79.9226519 C28.7665579,79.8701136 29.1481905,79.6442717 29.5303703,79.2445791 C29.9127326,78.8456162 30.103184,78.2638637 30.103184,77.5002337 C30.103184,77.3966165 30.0940628,76.214869 30.0769148,73.9580925 C30.0592196,71.7005863 30.0506457,69.9126414 30.0506457,68.5929808 L28.8526624,68.8014922 C28.08885,68.940135 27.1252825,69.0012473 25.9619599,68.9837346 C24.7991846,68.9662218 23.5922625,68.8450917 22.3424705,68.6192499 C21.0919489,68.3932257 19.9291736,67.8725854 18.8526852,67.0573293 C17.776744,66.2406137 17.0129316,65.1732465 16.5614304,63.8541332 L16.0404253,62.6554202 C15.693271,61.8576768 15.1467265,60.9718222 14.400062,60.0004105 C13.6533975,59.0277217 12.8983415,58.3678914 12.1345291,58.0207371 L11.7698621,57.7602346 C11.5270547,57.5867487 11.3013953,57.3775075 11.0928838,57.1347002 C10.8847372,56.8911631 10.7285816,56.6478085 10.6244171,56.4055484 C10.5202526,56.1620114 10.6067219,55.9622563 10.8847372,55.8055535 C11.1627525,55.6495803 11.6656975,55.5722322 12.3952141,55.5722322 L13.4364945,55.7282054 C14.131168,55.8668482 14.9900236,56.2831414 16.0148859,56.9779973 C17.0390184,57.6723059 17.8809086,58.5749435 18.5407389,59.6857278 C19.3397592,61.1097353 20.3024146,62.194068 21.4314414,62.9407325 C22.559556,63.6881267 23.6969743,64.0613677 24.8426017,64.0613677 C25.988229,64.0613677 26.9777009,63.9745335 27.8113819,63.8015948 C28.6441509,63.6275616 29.4254761,63.3665118 30.1549926,63.0193575 C30.4674862,60.6932596 31.3183152,58.9040377 32.7067499,57.6542458 C30.7278063,57.4457343 28.9484354,57.1336056 27.3680898,56.7165826 C25.7886564,56.2995597 24.1565022,55.6229463 22.4727218,54.6851007 C20.7882117,53.7474375 19.3908382,52.585027 18.2796891,51.1953153 C17.1687224,49.8056036 16.2569635,47.9828156 15.5456894,45.7265864 C14.8340505,43.4690801 14.4781398,40.8646021 14.4781398,37.913517 C14.4781398,33.7124576 15.8501563,30.1354732 18.5930948,27.1843881 C17.3080949,24.0247915 17.4294073,20.4835624 18.957397,16.5596061 C19.9643816,16.2469301 21.4577105,16.4815284 23.4366541,17.2628535 C25.4159626,18.044726 26.8651448,18.7133127 27.78566,19.2680663 C28.7061753,19.8230024 29.4437185,20.2921988 29.9993843,20.6745611 C33.2292144,19.771741 36.5622969,19.3204222 39.9995439,19.3204222 C43.4366085,19.3204222 46.7702383,19.771741 50.0002508,20.6745611 L51.9793769,19.4245868 C53.334063,18.5909057 54.9310092,17.8270933 56.7714925,17.1329671 C58.6117933,16.4386585 60.0177408,16.2474774 60.9904295,16.5601534 C62.5523502,20.4841097 62.6920876,24.0253388 61.4061755,27.1847529 C64.149114,30.1362029 65.5214953,33.7130048 65.5214953,37.9140643 C65.5214953,40.8656966 65.1655847,43.4789311 64.4539457,45.7526731 C63.7428541,48.0269624 62.8232509,49.8504801 61.6938594,51.2219493 C60.5657447,52.593601 59.15925,53.7472551 57.4754696,54.6854655 C55.7913243,55.6225814 54.1593526,56.3004718 52.5791894,56.7162178 C50.9992087,57.1332408 49.2200202,57.4466465 47.2408942,57.6551579 C49.0452573,59.2170786 49.9478949,61.6816369 49.9478949,65.0502922 L49.9478949,77.4985919 C49.9478949,78.0891008 50.0339994,78.5661415 50.2076678,78.9308086 C50.3824307,79.2952932 50.6597163,79.5463097 51.0415313,79.6862294 C51.4249881,79.8248722 51.7619266,79.911524 52.0578195,79.9460023 C52.3537125,79.9808454 52.7782148,79.9983582 53.3338806,79.9983582 L65.0004903,79.9983582 C69.1320459,79.9983582 72.6656132,78.5312984 75.5984558,75.5971788 C78.5325754,72.6630592 79.9996352,69.1294919 79.9996352,64.9979363 L79.9996352,14.9998746 C79.9996352,10.8681366 78.5322105,7.33420441 75.5986382,4.4006321 Z" id="Path"></path>
        </g>
    </g>
</svg>