<?xml version="1.0" encoding="UTF-8"?>
<svg width="80px" height="80px" viewBox="0 0 80 80" version="1.1" xmlns="http://www.w3.org/2000/svg" xmlns:xlink="http://www.w3.org/1999/xlink">
    <title>linkedin</title>
    <g id="linkedin" stroke="none" stroke-width="1" fill="none" fill-rule="evenodd">
        <g fill-rule="nonzero">
            <rect id="background" fill="#2D414C" x="0" y="0" width="80" height="80" rx="16"></rect>
            <g id="icon" transform="translate(15.181818, 15.000000)" fill="#FFFFFF">
                <path d="M13.6363636,6.81818182 C13.6363636,10.5837597 10.5837597,13.6363636 6.81818182,13.6363636 C3.05260398,13.6363636 0,10.5837597 0,6.81818182 C0,3.05260398 3.05260398,0 6.81818182,0 C10.5837597,0 13.6363636,3.05260398 13.6363636,6.81818182 Z" id="Path"></path>
                <path d="M12.0909336,18.1818182 L12.0909336,48.3045455 C12.0933287,48.7533699 11.9167274,49.1846423 11.6002103,49.5028657 C11.2836931,49.8210892 10.8533765,50.0000062 10.4045455,50.0000062 L3.21818182,50.0000062 C2.76935457,50.0012114 2.33856101,49.8234516 2.02119106,49.5060817 C1.70382111,49.1887117 1.52606131,48.7579182 1.52726658,48.3090909 L1.52726658,18.1818182 C1.52726658,17.2479549 2.28431851,16.4909091 3.21818182,16.4909091 L10.4045455,16.4909091 C11.3366332,16.4934147 12.0909336,17.2497271 12.0909336,18.1818182 L12.0909336,18.1818182 Z" id="Path"></path>
                <path d="M49.6545521,33.8636364 L49.6545521,48.4454545 C49.6557574,48.858116 49.4923646,49.2542252 49.2005676,49.5460222 C48.9087707,49.8378191 48.5126614,50.0012119 48.1,50.0000067 L40.3727273,50.0000067 C39.9600658,50.0012119 39.5639566,49.8378191 39.2721596,49.5460222 C38.9803627,49.2542252 38.8169699,48.858116 38.8181818,48.4454545 L38.8181818,34.3136364 C38.8181818,32.2045455 39.4363636,25.0772727 33.3045455,25.0772727 C28.5545455,25.0772727 27.5863636,29.9545455 27.3954545,32.1454545 L27.3954545,48.4454545 C27.3955454,49.2952085 26.7132995,49.9875767 25.8636364,50.0000067 L18.4,50.0000067 C17.9881257,50.0000067 17.5931867,49.8360749 17.3023743,49.5444096 C17.0115619,49.2527444 16.8487922,48.8573271 16.8499933,48.4454545 L16.8499933,18.05 C16.8487922,17.6381274 17.0115619,17.2427101 17.3023743,16.9510449 C17.5931867,16.6593797 17.9881257,16.4954528 18.4,16.4954545 L25.8636364,16.4954545 C26.7221881,16.4954545 27.4181818,17.1914483 27.4181818,18.05 L27.4181818,20.6772727 C29.1818182,18.0318182 31.7954545,15.9909091 37.3727273,15.9909091 C49.7272727,15.9909091 49.6545521,27.5272727 49.6545521,33.8636364 L49.6545521,33.8636364 Z" id="Path"></path>
            </g>
        </g>
    </g>
</svg>