<?xml version="1.0" encoding="UTF-8"?>
<svg width="80px" height="80px" viewBox="0 0 80 80" version="1.1" xmlns="http://www.w3.org/2000/svg" xmlns:xlink="http://www.w3.org/1999/xlink">
    <title>logo</title>
    <g id="logo" stroke="none" stroke-width="1" fill="none" fill-rule="evenodd">
        <rect id="Rectangle" fill="#73B5EB" x="0" y="0" width="80" height="80" rx="16"></rect>
        <g id="D" transform="translate(40.000000, 39.995017) rotate(-12.000000) translate(-40.000000, -39.995017) translate(22.000000, 19.995017)" fill="#FFFFFF" fill-rule="nonzero">
            <path d="M25.7608696,20.0313972 L25.7608696,20.0313972 C25.7608696,24.0502355 24.7282609,27.0852957 22.6630435,29.1365777 C20.5978261,31.1878598 17.8478261,32.2135008 14.4130435,32.2135008 C13.673913,32.2135008 12.8913043,32.1821036 12.0652174,32.1193093 C11.2391304,32.0565149 10.5,31.9623234 9.84782609,31.8367347 L9.84782609,8.03767661 C10.5869565,7.95395081 11.3152174,7.88069074 12.0326087,7.81789639 C12.75,7.75510204 13.5,7.72370487 14.2826087,7.72370487 C16.5434783,7.72370487 18.5326087,8.17373103 20.25,9.07378336 C21.9673913,9.97383569 23.3152174,11.3239142 24.2934783,13.1240188 C25.2717391,14.9241235 25.7608696,17.2265829 25.7608696,20.0313972 Z M36,19.8430141 L36,19.8430141 C36,15.3636839 35.0652174,11.6588174 33.1956522,8.72841444 C31.326087,5.79801151 28.7282609,3.61067504 25.4021739,2.16640502 C22.076087,0.722135008 18.173913,0 13.6956522,0 C12.0434783,0 10.2173913,0.083725798 8.2173913,0.251177394 C6.2173913,0.41862899 4.34782609,0.774463632 2.60869565,1.31868132 C1.82608696,1.61172161 1.19565217,1.97802198 0.717391304,2.41758242 C0.239130435,2.85714286 0,3.49555207 0,4.33281005 L0,34.3485086 C0,36.3579278 1.13043478,37.7603349 3.39130435,38.55573 C5.08695652,39.1418106 6.97826087,39.5290424 9.06521739,39.7174254 C11.1521739,39.9058085 12.9130435,40 14.3478261,40 C18.6956522,40 22.4891304,39.2569335 25.7282609,37.7708006 C28.9673913,36.2846677 31.4891304,34.0554683 33.2934783,31.0832025 C35.0978261,28.1109367 36,24.3642072 36,19.8430141 Z" id="Shape"></path>
        </g>
    </g>
</svg>