<?xml version="1.0" encoding="UTF-8"?>
<svg width="48px" height="48px" viewBox="0 0 48 48" version="1.1" xmlns="http://www.w3.org/2000/svg" xmlns:xlink="http://www.w3.org/1999/xlink">
    <title>logo</title>
    <g id="logo" stroke="none" stroke-width="1" fill="none" fill-rule="evenodd">
        <rect id="Rectangle" fill="#6AB0DA" x="0" y="0" width="48" height="48" rx="12"></rect>
        <g id="D" transform="translate(24.254564, 24.024800) rotate(-12.000000) translate(-24.254564, -24.024800) translate(13.254564, 12.024800)" fill="#FFFFFF" fill-rule="nonzero">
            <path d="M15.7427536,12.0188383 L15.7427536,12.0188383 C15.7427536,14.4301413 15.111715,16.2511774 13.8496377,17.4819466 C12.5875604,18.7127159 10.9070048,19.3281005 8.80797101,19.3281005 C8.35628019,19.3281005 7.87801932,19.3092622 7.37318841,19.2715856 C6.86835749,19.2339089 6.41666667,19.177394 6.01811594,19.1020408 L6.01811594,4.82260597 C6.46980676,4.77237049 6.91485507,4.72841444 7.35326087,4.69073783 C7.79166667,4.65306122 8.25,4.63422292 8.72826087,4.63422292 C10.1099034,4.63422292 11.3254831,4.90423862 12.375,5.44427002 C13.4245169,5.98430141 14.2481884,6.79434851 14.8460145,7.8744113 C15.4438406,8.9544741 15.7427536,10.3359498 15.7427536,12.0188383 Z M22,11.9058085 L22,11.9058085 C22,9.21821036 21.428744,6.99529042 20.2862319,5.23704867 C19.1437198,3.47880691 17.5561594,2.16640502 15.5235507,1.29984301 C13.490942,0.433281005 11.1062802,0 8.36956522,0 C7.35990338,0 6.24396135,0.0502354788 5.02173913,0.150706436 C3.79951691,0.251177394 2.65700483,0.464678179 1.5942029,0.791208791 C1.11594203,0.967032967 0.730676329,1.18681319 0.438405797,1.45054945 C0.146135266,1.71428571 0,2.09733124 0,2.59968603 L0,20.6091052 C0,21.8147567 0.690821256,22.6562009 2.07246377,23.133438 C3.10869565,23.4850863 4.26449275,23.7174254 5.53985507,23.8304553 C6.81521739,23.9434851 7.89130435,24 8.76811594,24 C11.4251208,24 13.7433575,23.5541601 15.7228261,22.6624804 C17.7022947,21.7708006 19.2433575,20.433281 20.3460145,18.6499215 C21.4486715,16.866562 22,14.6185243 22,11.9058085 Z" id="Shape"></path>
        </g>
    </g>
</svg>