<?xml version="1.0" encoding="UTF-8"?>
<svg width="80px" height="80px" viewBox="0 0 80 80" version="1.1" xmlns="http://www.w3.org/2000/svg" xmlns:xlink="http://www.w3.org/1999/xlink">
    <title>menu</title>
    <g id="menu" stroke="none" stroke-width="1" fill="none" fill-rule="evenodd">
        <g transform="translate(0.000000, 8.000000)" fill="#2D414C" fill-rule="nonzero" id="Shape">
            <path d="M20,4.57142857 C20,2.04678571 21.7909375,0 24,0 L76,0 C78.2090625,0 80,2.04678571 80,4.57142857 C80,7.09607143 78.2090625,9.14285714 76,9.14285714 L24,9.14285714 C21.7909375,9.14285714 20,7.09589286 20,4.57142857 Z M76,27.4285714 L4,27.4285714 C1.7909375,27.4285714 0,29.4755357 0,32 C0,34.5246429 1.7909375,36.5714286 4,36.5714286 L76,36.5714286 C78.2090625,36.5714286 80,34.5246429 80,32 C80,29.4755357 78.2090625,27.4285714 76,27.4285714 Z M76,54.8571429 L40,54.8571429 C37.7910938,54.8571429 36,56.9039286 36,59.4285714 C36,61.9530357 37.7910938,64 40,64 L76,64 C78.2090625,64 80,61.9530357 80,59.4285714 C80,56.9039286 78.2090625,54.8571429 76,54.8571429 Z"></path>
        </g>
    </g>
</svg>