<?xml version="1.0" encoding="UTF-8"?>
<svg width="48px" height="48px" viewBox="0 0 48 48" version="1.1" xmlns="http://www.w3.org/2000/svg" xmlns:xlink="http://www.w3.org/1999/xlink">
    <title>menu</title>
    <g id="menu" stroke="none" stroke-width="1" fill="none" fill-rule="evenodd">
        <g transform="translate(0.000000, 6.000000)" fill="#2C3850" fill-rule="nonzero" id="Shape">
            <path d="M12,2.57142857 C12,1.15131696 13.0745625,0 14.4,0 L45.6,0 C46.9254375,0 48,1.15131696 48,2.57142857 C48,3.99154018 46.9254375,5.14285714 45.6,5.14285714 L14.4,5.14285714 C13.0745625,5.14285714 12,3.99143973 12,2.57142857 Z M45.6,15.4285714 L2.4,15.4285714 C1.0745625,15.4285714 0,16.5799888 0,18 C0,19.4201116 1.0745625,20.5714286 2.4,20.5714286 L45.6,20.5714286 C46.9254375,20.5714286 48,19.4201116 48,18 C48,16.5799888 46.9254375,15.4285714 45.6,15.4285714 Z M45.6,30.8571429 L24,30.8571429 C22.6746562,30.8571429 21.6,32.0084598 21.6,33.4285714 C21.6,34.8485826 22.6746562,36 24,36 L45.6,36 C46.9254375,36 48,34.8485826 48,33.4285714 C48,32.0084598 46.9254375,30.8571429 45.6,30.8571429 Z"></path>
        </g>
    </g>
</svg>